<?xml version="1.0" encoding="UTF-8"?>
<svg version="1.1" xmlns="http://www.w3.org/2000/svg" width="512" height="512">
<path d="M0 0 C2.62052047 0.89819418 4.38249033 1.93045977 6.5871582 3.59692383 C7.34625488 4.1637085 8.10535156 4.73049316 8.88745117 5.31445312 C9.68940918 5.92716064 10.49136719 6.53986816 11.31762695 7.17114258 C12.15567871 7.80125244 12.99373047 8.4313623 13.85717773 9.08056641 C15.58075094 10.37723983 17.30177865 11.6773036 19.02026367 12.98071289 C21.28630916 14.69327153 23.5650207 16.38620216 25.8527832 18.06958008 C45.28718163 32.39407202 63.97338552 48.43614097 78.50512695 67.85864258 C79.35511895 68.9565067 80.2053981 70.05414853 81.0559082 71.15161133 C106.23881165 104.09522711 122.33405007 143.05087295 129.38012695 183.79614258 C129.56055542 184.83206543 129.56055542 184.83206543 129.74462891 185.88891602 C130.54024379 190.93006993 130.5946158 195.77269295 130.50512695 200.85864258 C131.17624512 200.71483154 131.84736328 200.57102051 132.53881836 200.42285156 C133.3114502 200.2572876 134.08408203 200.09172363 134.88012695 199.92114258 C135.69223633 199.74711914 136.5043457 199.5730957 137.34106445 199.39379883 C144.93529416 198.10934269 152.48634273 197.71194827 160.17749023 197.74511719 C161.54030373 197.74489815 161.54030373 197.74489815 162.9306488 197.74467468 C165.8956044 197.74536425 168.860495 197.75311132 171.82543945 197.76098633 C173.89622971 197.76285391 175.96702042 197.76427621 178.03781128 197.76527405 C183.45956668 197.76907244 188.88129483 197.77887957 194.30303955 197.78997803 C199.84696077 197.80025001 205.39088644 197.80478402 210.93481445 197.80981445 C221.79159719 197.82050449 232.64835979 197.83754838 243.50512695 197.85864258 C243.59874564 208.54396342 243.66934968 219.2291831 243.71237564 229.91483402 C243.73304958 234.87924482 243.76098652 239.84337044 243.80688477 244.80761719 C244.19302116 287.72076214 244.19302116 287.72076214 239.50512695 305.85864258 C239.16893845 307.17837318 239.16893845 307.17837318 238.82595825 308.52476501 C230.79015848 339.5437912 214.46049112 365.8038444 192.50512695 388.85864258 C191.52479492 389.91825195 191.52479492 389.91825195 190.5246582 390.99926758 C163.32474467 419.53307879 119.97870868 438.89270368 80.6730926 440.09540874 C71.0558696 440.3218516 61.43514172 440.30745633 51.81583881 440.29455066 C48.20834234 440.29142382 44.60088373 440.29758971 40.99339271 440.3035894 C32.46634654 440.3175578 23.93940071 440.31613878 15.41235352 440.3046875 C6.68327044 440.29322225 -2.0455048 440.30727287 -10.77454734 440.33408397 C-18.33108769 440.35640484 -25.88753258 440.36284161 -33.44410348 440.35700756 C-37.92991029 440.35367459 -42.41552018 440.35580358 -46.90129852 440.37325859 C-100.76199516 440.56276861 -145.90598857 426.60748031 -185.49487305 388.85864258 C-186.28635742 388.12000977 -187.0778418 387.38137695 -187.89331055 386.62036133 C-209.44060682 365.94251736 -224.15134847 336.8683482 -231.74487305 308.29614258 C-231.99124512 307.37502686 -232.23761719 306.45391113 -232.49145508 305.50488281 C-236.1253355 291.23179409 -236.77643859 277.52850761 -236.69018555 262.89770508 C-236.68644616 261.01199495 -236.68360358 259.12628285 -236.68161011 257.24057007 C-236.67404643 252.32517951 -236.65446212 247.4099109 -236.63220215 242.49456787 C-236.6115854 237.45969288 -236.60257486 232.4247978 -236.5925293 227.38989258 C-236.57120793 217.54608958 -236.53716199 207.7023763 -236.49487305 197.85864258 C-224.66279816 197.81203027 -212.8307456 197.77662795 -200.99859715 197.75501823 C-195.50277495 197.74463977 -190.00701618 197.7305908 -184.51123047 197.70776367 C-179.19438503 197.68582132 -173.87760009 197.67402948 -168.56071281 197.66888809 C-166.54563382 197.66523033 -164.53055763 197.65808937 -162.51550484 197.64718246 C-131.24246436 197.48484692 -131.24246436 197.48484692 -124.49487305 200.85864258 C-124.36532227 199.00239258 -124.36532227 199.00239258 -124.2331543 197.10864258 C-121.56695741 162.86007071 -111.63942757 130.13446673 -95.49487305 99.85864258 C-95.15375488 99.20976074 -94.81263672 98.56087891 -94.46118164 97.89233398 C-78.29310135 67.31079041 -54.1864213 38.98753134 -26.42993164 18.31420898 C-22.5344249 15.38397795 -18.71063523 12.36002014 -14.86987305 9.35864258 C-13.3574784 8.18075479 -11.84449527 7.00362205 -10.33081055 5.82739258 C-9.6867627 5.3265918 -9.04271484 4.82579102 -8.37915039 4.30981445 C-7.75733887 3.83092773 -7.13552734 3.35204102 -6.49487305 2.85864258 C-5.54088623 1.99335937 -5.54088623 1.99335937 -4.56762695 1.1105957 C-2.49487305 -0.14135742 -2.49487305 -0.14135742 0 0 Z M-7.61987305 45.92114258 C-8.16385742 46.38713867 -8.7078418 46.85313477 -9.26831055 47.33325195 C-11.01678883 48.83457384 -12.75573196 50.34651896 -14.49487305 51.85864258 C-15.44608032 52.67522339 -15.44608032 52.67522339 -16.41650391 53.50830078 C-29.044572 64.41541668 -40.78184764 76.265801 -50.49487305 89.85864258 C-50.90753418 90.43227539 -51.32019531 91.0059082 -51.74536133 91.59692383 C-71.73950965 119.69933408 -84.45517824 151.47304607 -89.86987305 185.48364258 C-90.03793457 186.53801514 -90.20599609 187.5923877 -90.37915039 188.67871094 C-91.41549667 195.77796307 -91.68189733 202.68937846 -91.49487305 209.85864258 C-90.00600586 210.58567383 -90.00600586 210.58567383 -88.48706055 211.32739258 C-70.86681054 219.99115547 -54.13745879 229.30891955 -39.71362305 242.79614258 C-37.73750211 244.63310007 -35.70532684 246.33675422 -33.61987305 248.04614258 C-17.98028386 261.72683372 -6.57116842 280.39979647 2.50512695 298.85864258 C3.16512695 298.85864258 3.82512695 298.85864258 4.50512695 298.85864258 C5.05040039 297.78227539 5.59567383 296.7059082 6.1574707 295.59692383 C17.76964047 272.98375112 33.1971458 252.36289448 53.50512695 236.85864258 C54.41520508 236.13290039 55.3252832 235.4071582 56.26293945 234.65942383 C69.23178751 224.53524135 83.72907131 216.97819563 98.50512695 209.85864258 C97.57406579 157.80385937 71.98269903 107.80307581 36.50512695 70.85864258 C36.01786133 70.34414551 35.5305957 69.82964844 35.02856445 69.29956055 C24.82955975 58.55856329 13.21127999 48.5505906 0.50512695 40.85864258 C-2.92187558 40.85864258 -5.13404004 43.76016275 -7.61987305 45.92114258 Z M-204.49487305 230.85864258 C-205.08165946 280.11710531 -199.98749598 325.75882659 -164.3503418 362.97583008 C-135.90479915 391.98182759 -99.25170443 407.16451662 -58.69445801 407.91012573 C-51.14876531 407.98126383 -43.60321617 407.9501083 -36.05737305 407.92114258 C-33.76505632 407.91611592 -31.47273852 407.91155509 -29.18041992 407.9074707 C-23.61854721 407.89656119 -18.05671527 407.87991609 -12.49487305 407.85864258 C-12.18511905 353.99480582 -18.69026048 309.16819648 -58.05737305 269.26098633 C-85.58735196 243.58746981 -121.10502457 230.60853481 -158.4987793 230.76098633 C-160.47732155 230.76310875 -160.47732155 230.76310875 -162.49583435 230.76527405 C-165.9727677 230.76906014 -169.44965812 230.77885622 -172.92657471 230.78997803 C-176.48644429 230.80027698 -180.04632093 230.8047897 -183.60620117 230.80981445 C-190.56910924 230.8204827 -197.53198907 230.83751113 -204.49487305 230.85864258 Z M69.50512695 265.85864258 C68.58086914 266.65012695 67.65661133 267.44161133 66.7043457 268.25708008 C60.22662536 273.9374047 54.70790048 279.99773321 49.50512695 286.85864258 C48.61567383 288.02459961 48.61567383 288.02459961 47.70825195 289.21411133 C21.33213846 325.3300282 19.25769168 364.83155106 19.50512695 407.85864258 C26.08061268 407.91032762 32.65604415 407.94477735 39.23168945 407.96850586 C41.45794633 407.97842166 43.68419071 407.99195835 45.91040039 408.00952148 C73.91104216 408.23776098 73.91104216 408.23776098 101.44262695 403.60864258 C102.30484863 403.39103271 103.16707031 403.17342285 104.05541992 402.94921875 C134.41467635 394.99099447 162.68265888 376.58622147 181.44262695 351.29614258 C181.95913818 350.60141846 182.47564941 349.90669434 183.0078125 349.19091797 C187.75328237 342.69832291 191.79584425 336.00363833 195.50512695 328.85864258 C196.10969727 327.71395508 196.71426758 326.56926758 197.3371582 325.38989258 C209.9157578 300.63681147 211.72842541 273.62156623 211.56762695 246.35864258 C211.56259111 244.84171701 211.55803197 243.32478978 211.55395508 241.80786133 C211.54313931 238.15808618 211.52599541 234.50837579 211.50512695 230.85864258 C204.01031633 230.78826952 196.5155411 230.7353982 189.02047253 230.70320606 C185.53794138 230.68773379 182.05564072 230.66684652 178.57324219 230.63232422 C137.57615129 230.23694138 101.02296741 238.10768472 69.50512695 265.85864258 Z " fill="#000000" transform="translate(252.494873046875,36.141357421875)"/>
</svg>
